<?xml version="1.0" encoding="utf-8"?>
<!-- Generator: Adobe Illustrator 24.1.2, SVG Export Plug-In . SVG Version: 6.00 Build 0)  -->
<svg version="1.1" id="Layer_1" xmlns="http://www.w3.org/2000/svg" xmlns:xlink="http://www.w3.org/1999/xlink" x="0px" y="0px"
	 viewBox="0 0 82 82" style="enable-background:new 0 0 82 82;" xml:space="preserve">
<style type="text/css">
	.st0{fill-rule:evenodd;clip-rule:evenodd;fill:#F89C27;}
	.st1{fill-rule:evenodd;clip-rule:evenodd;fill:#AF2A30;}
	.st2{fill-rule:evenodd;clip-rule:evenodd;fill:#FFFFFF;}
</style>
<path class="st0" d="M23.18,17.82C43.53-0.8,68.13-5.61,77.94,7.11C87.75,19.83,79.16,45.39,58.82,64
	C38.47,82.62,13.87,87.43,4.06,74.71C-5.75,61.99,2.84,36.43,23.18,17.82"/>
<path class="st1" d="M36.65,7.89c-2.19,1.52-4.53,3.29-6.72,5.32C12.1,29.41,4.69,51.7,13.47,62.84c9.05,11.14,31,7.09,49.1-9.37
	c9.74-8.73,16.32-18.99,19.06-28.49c0.82-6.96-0.27-13.17-3.7-17.85C70.12-2.75,53.38-1.99,36.65,7.89"/>
<path class="st2" d="M46.73,73.19c-9.52,6.61-19.37,9.88-28.96,8.51c4.03,0.19,7.28-3.94,9.95-9.48c2.71-5.68,4.34-10.95,5.63-15.88
	c1.89-7.8,2.04-13.38,1.07-14.58c-1.63-1.99-5.34-1.47-9.52,0.75c-2,1.03-4.67,0.34-1.52-3.18c3.19-3.56,15.86-12.11,20.42-13.45
	c5-1.34,10.71,0.48,8.79,5.54C51.22,35.12,33.68,77.59,46.73,73.19 M61.07,7.31c2.37,2.19,0.93,6.98-3.11,10.74
	c-4.08,3.73-9.38,5.06-11.68,2.91c-2.45-2.16-1-7.02,3.08-10.81C53.48,6.35,58.78,5.19,61.07,7.31z"/>
</svg>
