<?xml version="1.0" encoding="UTF-8"?>
<svg width="24px" height="24px" viewBox="0 0 24 24" version="1.1" xmlns="http://www.w3.org/2000/svg" xmlns:xlink="http://www.w3.org/1999/xlink">
    <title>icons/filled/pending@2x</title>
    <g id="icons/filled/pending" stroke="none" stroke-width="1" fill="none" fill-rule="evenodd">
        <path d="M11.1545111,4.33869076 L2.23199557,18.466007 C1.93707939,18.9329576 2.07654086,19.5505727 2.54349149,19.8454889 C2.70330864,19.9464261 2.88846111,20 3.07748448,20 L20.9225155,20 C21.4748003,20 21.9225155,19.5522847 21.9225155,19 C21.9225155,18.8109766 21.8689416,18.6258242 21.7680044,18.466007 L12.8454889,4.33869076 C12.5505727,3.87174014 11.9329576,3.73227867 11.466007,4.02719485 C11.3403114,4.10658152 11.2338978,4.2129952 11.1545111,4.33869076 Z" id="Path-13" fill="#FFD35D"></path>
        <path d="M12,16 C12.6075132,16 13.1,16.4924868 13.1,17.1 C13.1,17.7075132 12.6075132,18.2 12,18.2 C11.3924868,18.2 10.9,17.7075132 10.9,17.1 C10.9,16.4924868 11.3924868,16 12,16 Z M13.3,8 L13.3,15 L10.8,15 L10.8,8 L13.3,8 Z" id="Combined-Shape" fill="#FFFFFF"></path>
    </g>
</svg>