<svg xmlns="http://www.w3.org/2000/svg" height="800" width="800" xml:space="preserve" y="0" x="0" id="Layer_2" version="1.1" viewBox="-19.77372 -8.949675 171.37224 53.69805">
<style id="style28" type="text/css">.st0{fill:#5f259f}</style>
<g transform="translate(.0248 -6.071)" id="g34">
  <circle r="80" id="ellipse30" cy="75" cx="25" class="st0" transform="matrix(.2298 -.9732 .9732 .2298 -9.5957 35.8754)"/>
 </g>
 <g transform="scale(3 3) translate(5 -10)">
 <path id="path36" d="M26.0248 13.229c0-.7-.6-1.3-1.3-1.3h-2.4l-5.5-6.3c-.5-.6-1.3-.8-2.1-.6l-1.9.6c-.3.1-.4.5-.2.7l6 5.7h-9.1c-.3 0-.5.2-.5.5v1c0 .7.6 1.3 1.3 1.3h1.4v4.8c0 3.6 1.9 5.7 5.1 5.7 1 0 1.8-.1 2.8-.5v3.2c0 .9.7 1.6 1.6 1.6h1.4c.3 0 .6-.3.6-.6v-14.3h2.3c.3 0 .5-.2.5-.5zm-6.4 8.6c-.6.3-1.4.4-2 .4-1.6 0-2.4-.8-2.4-2.6v-4.8h4.4z" fill="#fff"/>
 </g>
 </svg>