<svg xmlns="http://www.w3.org/2000/svg" viewBox="0 0 350 350">
  <title>icon-ft-on-dp</title>
  <path d="M175,350A175,175,0,1,0,0,175,175,175,0,0,0,175,350" fill="#20014b"/>
  <g>
    <path d="M231,235H115V224H230.94a5.85,5.85,0,0,1,5.64,5.64,5.62,5.62,0,0,1-5.64,5.36" fill="#4fd9d3"/>
    <path d="M220,257H115V246H219.89a5.62,5.62,0,0,1,5.37,5.64,5.38,5.38,0,0,1-5.37,5.36" fill="#4fd9d3"/>
    <path d="M231.07,93a5.39,5.39,0,0,1,5.37,5.37,5.62,5.62,0,0,1-5.37,5.63H126V93Z" fill="#4fd9d3"/>
    <path d="M231.08,115a5.38,5.38,0,0,1,5.37,5.36,5.63,5.63,0,0,1-5.37,5.64H115V115Z" fill="#4fd9d3"/>
    <path d="M153.29,137a5.86,5.86,0,0,1,5.64,5.64,5.62,5.62,0,0,1-5.64,5.36H104V137Z" fill="#4fd9d3"/>
    <path d="M240.69,202a5.85,5.85,0,0,1,5.64,5.63,5.63,5.63,0,0,1-5.64,5.37H191V202Z" fill="#4fd9d3"/>
    <path d="M219.9,159a5.38,5.38,0,0,1,5.36,5.36A5.6,5.6,0,0,1,219.9,170H115V159Z" fill="#4fd9d3"/>
    <path d="M231,191H126V180H231.15a5.61,5.61,0,0,1,5.36,5.64,5.38,5.38,0,0,1-5.36,5.36" fill="#4fd9d3"/>
  </g>
</svg>
